<mxfile host="65bd71144e">
    <diagram id="kgpKYQtTHZ0yAKxKKP6v" name="Page-1">
        <mxGraphModel dx="1227" dy="557" grid="1" gridSize="10" guides="1" tooltips="1" connect="1" arrows="1" fold="1" page="1" pageScale="1" pageWidth="850" pageHeight="1100" math="0" shadow="0">
            <root>
                <mxCell id="0"/>
                <mxCell id="1" parent="0"/>
                <mxCell id="wLxULnZX6Zh7Ex37R7WK-18" value="Scheduling Server" style="shape=umlLifeline;perimeter=lifelinePerimeter;container=1;collapsible=0;recursiveResize=0;rounded=0;shadow=0;strokeWidth=1;" parent="1" vertex="1">
                    <mxGeometry x="560" y="80" width="140" height="160" as="geometry"/>
                </mxCell>
                <mxCell id="wLxULnZX6Zh7Ex37R7WK-19" value="" style="points=[];perimeter=orthogonalPerimeter;rounded=0;shadow=0;strokeWidth=1;" parent="wLxULnZX6Zh7Ex37R7WK-18" vertex="1">
                    <mxGeometry x="65" y="80" width="10" height="50" as="geometry"/>
                </mxCell>
                <mxCell id="wLxULnZX6Zh7Ex37R7WK-7" value="2. Abfrage von&amp;nbsp;HealthcareServices" style="text;html=1;strokeColor=none;fillColor=none;align=center;verticalAlign=middle;whiteSpace=wrap;rounded=0;" parent="1" vertex="1">
                    <mxGeometry x="160" y="40" width="190" height="30" as="geometry"/>
                </mxCell>
                <mxCell id="wLxULnZX6Zh7Ex37R7WK-15" value="Scheduling Client" style="shape=umlLifeline;perimeter=lifelinePerimeter;container=1;collapsible=0;recursiveResize=0;rounded=0;shadow=0;strokeWidth=1;" parent="1" vertex="1">
                    <mxGeometry x="185" y="80" width="100" height="160" as="geometry"/>
                </mxCell>
                <mxCell id="wLxULnZX6Zh7Ex37R7WK-16" value="" style="points=[];perimeter=orthogonalPerimeter;rounded=0;shadow=0;strokeWidth=1;" parent="wLxULnZX6Zh7Ex37R7WK-15" vertex="1">
                    <mxGeometry x="45" y="70" width="10" height="60" as="geometry"/>
                </mxCell>
                <mxCell id="wLxULnZX6Zh7Ex37R7WK-17" value="Trigger" style="verticalAlign=bottom;startArrow=oval;endArrow=block;startSize=8;shadow=0;strokeWidth=1;" parent="wLxULnZX6Zh7Ex37R7WK-15" target="wLxULnZX6Zh7Ex37R7WK-16" edge="1">
                    <mxGeometry relative="1" as="geometry">
                        <mxPoint x="-15" y="70" as="sourcePoint"/>
                    </mxGeometry>
                </mxCell>
                <mxCell id="wLxULnZX6Zh7Ex37R7WK-23" value="Abfrage verfügbarer Behandlungsleistungen" style="verticalAlign=bottom;endArrow=block;entryX=0;entryY=0;shadow=0;strokeWidth=1;" parent="1" source="wLxULnZX6Zh7Ex37R7WK-16" target="wLxULnZX6Zh7Ex37R7WK-19" edge="1">
                    <mxGeometry relative="1" as="geometry">
                        <mxPoint x="340" y="160" as="sourcePoint"/>
                    </mxGeometry>
                </mxCell>
                <mxCell id="wLxULnZX6Zh7Ex37R7WK-20" value="Übermittlung verfügbarer Behandlungsleistungen" style="verticalAlign=bottom;endArrow=open;dashed=1;endSize=8;exitX=0.036;exitY=0.592;shadow=0;strokeWidth=1;entryX=1;entryY=0.667;entryDx=0;entryDy=0;entryPerimeter=0;exitDx=0;exitDy=0;exitPerimeter=0;" parent="1" source="wLxULnZX6Zh7Ex37R7WK-19" target="wLxULnZX6Zh7Ex37R7WK-16" edge="1">
                    <mxGeometry x="0.0139" relative="1" as="geometry">
                        <mxPoint x="285" y="189.9999999999999" as="targetPoint"/>
                        <mxPoint x="615" y="189.9999999999999" as="sourcePoint"/>
                        <mxPoint as="offset"/>
                    </mxGeometry>
                </mxCell>
            </root>
        </mxGraphModel>
    </diagram>
</mxfile>